
<?xml version="1.0" encoding="UTF-8"?>
<svg id="svg1" version="1.1" viewBox="0 0 1792 1024" xmlns="http://www.w3.org/2000/svg">
  <g id="CR-BQ-FRAME" transform="translate(408 -17)" stroke-linecap="round" stroke-linejoin="round" stroke-width="0">
    <path id="outer-frame" d="m-401.51 21.798c-0.95216 0-1.733 0.7737-1.7348 1.7348v31.019h32.614v-32.754zm61.993 0v32.754h1655.1v-32.754zm1686.2 0v32.754h32.606l-0.01-31.027c-0.01-0.9488-0.7682-1.7167-1.7126-1.7274zm-630.03 38.034c-5.6562 3e-4 -10.239 4.6153-10.239 10.305 2.6e-4 5.6898 4.5828 10.305 10.239 10.305 5.6562-3.1e-4 10.239-4.6153 10.239-10.305-3e-4 -5.6898-4.5828-10.305-10.239-10.305zm39.236 0c-5.6562 2.3e-4 -10.239 4.6153-10.239 10.305 2.7e-4 5.6898 4.5828 10.305 10.239 10.305 5.6562-2.7e-4 10.239-4.6153 10.239-10.305-3e-4 -5.6898-4.5828-10.305-10.239-10.305zm39.236 0c-5.6562 3e-4 -10.239 4.6153-10.239 10.305 2.7e-4 5.6898 4.5828 10.305 10.239 10.305 5.6562-2.7e-4 10.239-4.6153 10.239-10.305-3e-4 -5.6898-4.5828-10.305-10.239-10.305zm-1150.2 0.1697c-5.6562 3.1e-4 -10.246 4.6149-10.246 10.305 2.8e-4 5.6902 4.5903 10.305 10.246 10.305 5.6562-2.3e-4 10.239-4.6153 10.239-10.305-2.8e-4 -5.6898-4.5828-10.305-10.239-10.305zm39.228 0c-5.6562 3.1e-4 -10.239 4.6153-10.239 10.305 2.8e-4 5.6898 4.5828 10.305 10.239 10.305 5.6562-2.6e-4 10.246-4.6149 10.246-10.305-2.9e-4 -5.6902-4.5903-10.305-10.246-10.305zm39.236 0c-5.6562 3.1e-4 -10.239 4.6153-10.239 10.305 2.8e-4 5.6898 4.5828 10.305 10.239 10.305 5.6562-2.3e-4 10.239-4.6153 10.239-10.305-2.8e-4 -5.6898-4.5828-10.305-10.239-10.305zm457.44 0c-5.6562 3.1e-4 -10.239 4.6153-10.239 10.305 3.1e-4 5.6898 4.5828 10.305 10.239 10.305 5.6562-2.6e-4 10.246-4.6149 10.246-10.305-2.6e-4 -5.6902-4.5903-10.305-10.246-10.305zm39.244 0c-5.6562 3.1e-4 -10.239 4.6153-10.239 10.305 3e-4 5.6898 4.5828 10.305 10.239 10.305 5.6562-3e-4 10.239-4.6153 10.239-10.305-2.7e-4 -5.6898-4.5828-10.305-10.239-10.305zm39.236 0c-5.6562 2.7e-4 -10.239 4.6153-10.239 10.305 3e-4 5.6898 4.5828 10.305 10.239 10.305 5.6562-3e-4 10.239-4.6153 10.239-10.305-2.6e-4 -5.6898-4.5828-10.305-10.239-10.305zm993.35 0c-5.6561 3.1e-4 -10.238 4.6153-10.239 10.305 3e-4 5.6898 4.5828 10.305 10.239 10.305 5.6562-2.6e-4 10.239-4.6153 10.239-10.305-3e-4 -5.6898-4.5828-10.305-10.239-10.305zm39.236 0c-5.6562 3.1e-4 -10.238 4.6153-10.239 10.305 3e-4 5.6898 4.5827 10.305 10.239 10.305 5.6562-2.6e-4 10.238-4.6153 10.239-10.305-3e-4 -5.6898-4.5827-10.305-10.239-10.305zm39.236 0c-5.6562 3.1e-4 -10.239 4.6153-10.239 10.305 3e-4 5.6898 4.5828 10.305 10.239 10.305 5.6561-2.6e-4 10.238-4.6153 10.239-10.305-3e-4 -5.6898-4.5828-10.305-10.239-10.305zm-1482.2 0.0227c-1.224 2e-3 -2.2131 1.0013-2.2146 2.2294v15.945c2e-3 1.2276 0.99196 2.2204 2.2146 2.222h53.307c1.2222-2e-3 2.2131-0.99388 2.2146-2.222v-15.945c-0.0015-1.2276-0.99022-2.2278-2.2146-2.2294zm76.491 0c-1.2239 2e-3 -2.2131 1.0013-2.2146 2.2294v15.945c0.0015 1.2276 0.99195 2.2204 2.2146 2.222h53.292c1.2222-2e-3 2.2131-0.99388 2.2146-2.222v-15.945c-0.0015-1.2276-0.99022-2.2278-2.2146-2.2294zm76.476 0c-1.2239 2e-3 -2.2131 1.0013-2.2146 2.2294v15.945c0.00155 1.2276 0.99195 2.2204 2.2146 2.222h53.307c1.2222-2e-3 2.2131-0.99388 2.2146-2.222v-15.945c-0.0016-1.2276-0.99022-2.2278-2.2146-2.2294zm918.89 0c-1.2239 2e-3 -2.2131 1.0013-2.2146 2.2294v15.945c2e-3 1.2276 0.99195 2.2204 2.2146 2.222h53.307c1.2222-2e-3 2.2131-0.99388 2.2146-2.222v-15.945c-2e-3 -1.2276-0.99025-2.2278-2.2146-2.2294zm76.484 0c-1.2239 2e-3 -2.2131 1.0013-2.2146 2.2294v15.945c2e-3 1.2276 0.99195 2.2204 2.2146 2.222h53.3c1.2223-2e-3 2.2131-0.99388 2.2147-2.222v-15.945c0-1.2276-0.9903-2.2278-2.2147-2.2294zm76.484 0c-1.2241 2e-3 -2.2131 1.0012-2.2146 2.2294v15.945c0 1.2277 0.9919 2.2205 2.2146 2.222h53.3c1.2222-2e-3 2.2131-0.99388 2.2146-2.222v-15.945c0-1.2276-0.9902-2.2278-2.2146-2.2294zm-1477 25.866v886.16h32.614v-886.16zm63.728 0v886.16h1655.1v-886.16zm1686.2 0v886.16h32.606v-886.16zm-65.047 32.762c0.7293 2e-3 1.3262 0.59986 1.3287 1.3362v817.9c0 0.73699-0.6001 1.3336-1.3287 1.3362h-1587.2c-0.7315 0-1.3261-0.59642-1.3288-1.3362v-817.9c3e-3 -0.73827 0.59729-1.3267 1.3288-1.3288zm-1636.7 88.881c-5.6562 3e-4 -10.246 4.6149-10.246 10.305 2.2e-4 5.6902 4.5903 10.305 10.246 10.305 5.6562-2.3e-4 10.239-4.6153 10.239-10.305-2.8e-4 -5.6898-4.5828-10.305-10.239-10.305zm1686.2 0c-5.6561 3e-4 -10.238 4.6153-10.239 10.305 2e-4 5.6898 4.5828 10.305 10.239 10.305 5.6562-2.7e-4 10.239-4.6153 10.239-10.305-2e-4 -5.6898-4.5827-10.305-10.239-10.305zm-1686.2 39.501c-5.658 2.6e-4 -10.25 4.613-10.246 10.305 2.8e-4 5.6902 4.5903 10.305 10.246 10.305 5.6562-2.2e-4 10.239-4.6156 10.239-10.305 3e-3 -5.6924-4.5805-10.305-10.239-10.305zm1686.2 0c-5.658 3e-4 -10.242 4.6134-10.239 10.305 3e-4 5.6898 4.5828 10.305 10.239 10.305 5.6562-2.6e-4 10.239-4.6156 10.239-10.305 0-5.6924-4.5804-10.305-10.239-10.305zm-1686.2 39.501c-5.6562 3.1e-4 -10.246 4.6149-10.246 10.305 2.9e-4 5.6902 4.5903 10.305 10.246 10.305 5.6562-2.2e-4 10.239-4.6153 10.239-10.305-2.9e-4 -5.6898-4.5828-10.305-10.239-10.305zm1686.2 0c-5.6561 3.1e-4 -10.238 4.6153-10.239 10.305 3e-4 5.6898 4.5828 10.305 10.239 10.305 5.6562-2.6e-4 10.239-4.6153 10.239-10.305-2e-4 -5.6898-4.5827-10.305-10.239-10.305zm-1694.2 136.4c-1.2222 2e-3 -2.2131 0.99389-2.2146 2.222v53.651c2e-3 1.2276 0.99022 2.2278 2.2146 2.2294h15.835c1.224-2e-3 2.2131-1.0012 2.2146-2.2294v-53.651c-1e-3 -1.2277-0.99192-2.2205-2.2146-2.222zm1686.2 0c-1.2223 2e-3 -2.2132 0.99389-2.2146 2.222v53.651c0 1.2276 0.9902 2.2278 2.2146 2.2294h15.842c1.2239-2e-3 2.213-1.0013 2.2146-2.2294v-53.651c0-1.2277-0.992-2.2204-2.2146-2.222zm-1686.2 76.987c-1.224 2e-3 -2.2131 1.0012-2.2146 2.2294v53.659c2e-3 1.2277 0.99195 2.2204 2.2146 2.222h15.835c1.2222-2e-3 2.2131-0.99388 2.2146-2.222v-53.659c-1e-3 -1.2277-0.99018-2.2278-2.2146-2.2294zm1686.2 0c-1.224 2e-3 -2.2131 1.0012-2.2146 2.2294v53.659c0 1.2277 0.9919 2.2205 2.2146 2.222h15.842c1.2222-2e-3 2.213-0.99388 2.2146-2.222v-53.659c0-1.2277-0.9902-2.2278-2.2146-2.2294zm-1686.2 77.002c-1.2239 2e-3 -2.2131 1.0013-2.2146 2.2294v53.651c2e-3 1.2276 0.99022 2.2278 2.2146 2.2294h15.835c1.224-2e-3 2.2131-1.0012 2.2146-2.2294v-53.651c-2e-3 -1.2276-0.99022-2.2278-2.2146-2.2294zm1686.2 0c-1.224 2e-3 -2.213 1.0013-2.2146 2.2294v53.651c0 1.2276 0.9902 2.2278 2.2146 2.2294h15.842c1.2239-2e-3 2.213-1.0012 2.2146-2.2294v-53.651c0-1.2276-0.9903-2.2278-2.2146-2.2294zm-1678.3 173.9c-5.6562 2.7e-4 -10.246 4.6149-10.246 10.305 3e-4 5.6902 4.5903 10.305 10.246 10.305 5.6562-2.3e-4 10.239-4.6153 10.239-10.305-2.7e-4 -5.6898-4.5828-10.305-10.239-10.305zm1686.2 0c-5.6561 3.1e-4 -10.238 4.6153-10.239 10.305 3e-4 5.6898 4.5828 10.305 10.239 10.305 5.6562-2.6e-4 10.239-4.6153 10.239-10.305-2e-4 -5.6898-4.5827-10.305-10.239-10.305zm-1686.2 39.493c-5.6562 2.7e-4 -10.246 4.6149-10.246 10.305 2.7e-4 5.6902 4.5903 10.305 10.246 10.305 5.6562-2.3e-4 10.239-4.6153 10.239-10.305-2.3e-4 -5.6898-4.5828-10.305-10.239-10.305zm1686.2 0c-5.6561 3e-4 -10.238 4.6153-10.239 10.305 3e-4 5.6898 4.5828 10.305 10.239 10.305 5.6562-2.6e-4 10.239-4.6153 10.239-10.305-2e-4 -5.6898-4.5827-10.305-10.239-10.305zm-1686.2 39.501c-5.6562 2.7e-4 -10.246 4.6149-10.246 10.305 2.7e-4 5.6902 4.5903 10.305 10.246 10.305 5.6562-2.3e-4 10.239-4.6153 10.239-10.305-3e-4 -5.6898-4.5828-10.305-10.239-10.305zm1686.2 0c-5.6561 3e-4 -10.238 4.6153-10.239 10.305 3e-4 5.6898 4.5828 10.305 10.239 10.305 5.6562-2.7e-4 10.239-4.6153 10.239-10.305-3e-4 -5.6898-4.5827-10.305-10.239-10.305zm-614.49 147.54c-5.6562 3e-4 -10.239 4.6153-10.239 10.305 2.3e-4 5.6898 4.5828 10.305 10.239 10.305 5.6562-3e-4 10.239-4.6153 10.239-10.305-2.7e-4 -5.6898-4.5828-10.305-10.239-10.305zm39.236 0c-5.6562 2.3e-4 -10.239 4.6153-10.239 10.305 2.2e-4 5.6898 4.5828 10.305 10.239 10.305 5.6562-2.7e-4 10.239-4.6153 10.239-10.305-2.6e-4 -5.6898-4.5828-10.305-10.239-10.305zm39.236 0c-5.6562 3e-4 -10.239 4.6153-10.239 10.305 2.3e-4 5.6898 4.5828 10.305 10.239 10.305 5.6562-2.7e-4 10.239-4.6153 10.239-10.305-3e-4 -5.6898-4.5828-10.305-10.239-10.305zm-1150.2 0.15497c-5.6562 2.6e-4 -10.246 4.6149-10.246 10.305 2.8e-4 5.6902 4.5903 10.305 10.246 10.305 5.6562-1.9e-4 10.239-4.6153 10.239-10.305-2.9e-4 -5.6898-4.5828-10.305-10.239-10.305zm39.228 0c-5.6562 3e-4 -10.239 4.6153-10.239 10.305 2.8e-4 5.6898 4.5828 10.305 10.239 10.305 5.6562-2.6e-4 10.246-4.6149 10.246-10.305-2.9e-4 -5.6902-4.5903-10.305-10.246-10.305zm39.236 0c-5.6562 3e-4 -10.239 4.6153-10.239 10.305 2.7e-4 5.6898 4.5828 10.305 10.239 10.305 5.6562-1.9e-4 10.239-4.6153 10.239-10.305-3e-4 -5.6898-4.5828-10.305-10.239-10.305zm457.44 0c-5.6562 3e-4 -10.239 4.6153-10.239 10.305 2.6e-4 5.6898 4.5828 10.305 10.239 10.305 5.6562-2.6e-4 10.246-4.6149 10.246-10.305-2.6e-4 -5.6902-4.5903-10.305-10.246-10.305zm39.236 0c-5.6562 2.2e-4 -10.239 4.6153-10.239 10.305 2.7e-4 5.6898 4.5831 10.305 10.239 10.305 5.6584 3e-3 10.246-4.613 10.246-10.305-2.7e-4 -5.6924-4.588-10.308-10.246-10.305zm39.244 0c-5.6584-3e-3 -10.246 4.613-10.246 10.305 2.6e-4 5.6924 4.588 10.308 10.246 10.305 5.6562-3e-4 10.239-4.6153 10.239-10.305-3e-4 -5.6898-4.5831-10.305-10.239-10.305zm993.35 0c-5.6562 3e-4 -10.239 4.6153-10.239 10.305 3e-4 5.6898 4.5828 10.305 10.239 10.305 5.6561-2.6e-4 10.238-4.6153 10.239-10.305-3e-4 -5.6898-4.5828-10.305-10.239-10.305zm39.236 0c-5.6561 3e-4 -10.238 4.6153-10.239 10.305 3e-4 5.6898 4.5828 10.305 10.239 10.305 5.6562-2.6e-4 10.239-4.6153 10.239-10.305-3e-4 -5.6898-4.5827-10.305-10.239-10.305zm39.236 0c-5.6562 3e-4 -10.239 4.6153-10.239 10.305 2e-4 5.6898 4.5827 10.305 10.239 10.305 5.6561-2.6e-4 10.238-4.6153 10.239-10.305-3e-4 -5.6898-4.5828-10.305-10.239-10.305zm-1482.2 0.0378c-1.2239 2e-3 -2.2131 1.0012-2.2146 2.2294v15.945c1e-3 1.2277 0.99191 2.2204 2.2146 2.222h53.3c1.2222-2e-3 2.2131-0.99388 2.2146-2.222v-15.945c-0.0015-1.2276-0.99022-2.2278-2.2146-2.2294zm76.484 0c-1.2239 2e-3 -2.2131 1.0012-2.2146 2.2294v15.945c0.0015 1.2277 0.99192 2.2204 2.2146 2.222h53.3c1.2222-2e-3 2.2131-0.99388 2.2146-2.222v-15.945c-0.0015-1.2276-0.99022-2.2278-2.2146-2.2294zm76.484 0c-1.2239 2e-3 -2.2131 1.0012-2.2146 2.2294v15.945c0.001474 1.2277 0.99192 2.2204 2.2146 2.222h53.307c1.2222-2e-3 2.2131-0.99388 2.2146-2.222v-15.945c-0.0015-1.2276-0.99022-2.2278-2.2146-2.2294zm918.89 0c-1.224 2e-3 -2.213 1.0012-2.2146 2.2294v15.945c2e-3 1.2277 0.99196 2.2204 2.2146 2.222h53.3c1.2222-2e-3 2.2131-0.99388 2.2146-2.222v-15.945c-2e-3 -1.2276-0.99021-2.2278-2.2146-2.2294zm76.484 0c-1.2239 2e-3 -2.2131 1.0012-2.2146 2.2294v15.945c1e-3 1.2277 0.99195 2.2204 2.2146 2.222h53.3c1.2222-2e-3 2.2131-0.99388 2.2146-2.222v-15.945c0-1.2276-0.9902-2.2278-2.2146-2.2294zm76.484 0c-1.224 1e-3 -2.2131 1.0012-2.2146 2.2294v15.945c0 1.2277 0.9919 2.2205 2.2146 2.222h53.3c1.2222-2e-3 2.2132-0.99388 2.2146-2.222v-15.945c0-1.2276-0.9902-2.2278-2.2146-2.2294zm-1477 25.867v31.064c2e-3 0.9604 0.77398 1.7476 1.7348 1.7495h30.879v-32.813zm63.728 0v32.813h1655.1v-32.813zm1686.2 0v32.813h30.872c0.9626 0 1.733-0.7871 1.7348-1.7495v-31.064z" fill="#d40000" style="paint-order:stroke fill markers" aria-label="OUTER-FRAME">
      <title id="outer-frame">outer-frame</title>
    </path>
    <path id="inner-frame" d="m-406.32 17c-0.92589 0-1.6745 0.75735-1.6777 1.6895v1020.6c0 0.932 0.75174 1.6864 1.6777 1.6895h1788.7c0.9258 0 1.6745-0.7574 1.6777-1.6895v-1020.6c0-0.9321-0.7518-1.6863-1.6777-1.6895h-1788.7zm4.7852 5.1465h30.52v32.055h-31.9v-30.666c0-0.7669 0.61956-1.3874 1.3809-1.3887zm62.352 0h743.76v32.055h-743.76v-32.055zm912.37 0h742.04v32.055h-742.04v-32.055zm773.86 0h30.514c0.764 0 1.3854 0.62007 1.3868 1.3887v30.666h-31.9v-32.055zm-630.4 38.041c5.4591 2e-4 9.8846 4.4555 9.8848 9.9512-2e-4 5.4957-4.4257 9.951-9.8848 9.9512-5.4591-2e-4 -9.8846-4.4555-9.8848-9.9512 2e-4 -5.4957 4.4257-9.951 9.8848-9.9512zm39.236 0c5.4591 2e-4 9.8846 4.4555 9.8848 9.9512-1.9e-4 5.4957-4.4257 9.951-9.8848 9.9512-5.4591-2.5e-4 -9.8846-4.4556-9.8848-9.9512 2e-4 -5.4956 4.4257-9.9509 9.8848-9.9512zm39.236 0c5.4591 2e-4 9.8846 4.4555 9.8848 9.9512-2e-4 5.4957-4.4257 9.951-9.8848 9.9512-5.4591-2e-4 -9.8846-4.4555-9.8848-9.9512 2e-4 -5.4957 4.4257-9.951 9.8848-9.9512zm-1150.2 0.16602c5.4591 2e-4 9.8846 4.4555 9.8848 9.9512-2e-4 5.4957-4.4257 9.951-9.8848 9.9512-5.4591-2e-4 -9.8846-4.4555-9.8848-9.9512 2e-4 -5.4957 4.4257-9.951 9.8848-9.9512zm39.236 0c5.4591 2.5e-4 9.8846 4.4556 9.8848 9.9512-2e-4 5.4956-4.4257 9.9509-9.8848 9.9512-5.4591-2e-4 -9.8846-4.4555-9.8848-9.9512 2e-4 -5.4957 4.4257-9.951 9.8848-9.9512zm39.236 0c5.4591 2e-4 9.8846 4.4555 9.8848 9.9512-2e-4 5.4957-4.4257 9.951-9.8848 9.9512-5.4591-2e-4 -9.8846-4.4555-9.8848-9.9512 2e-4 -5.4957 4.4257-9.951 9.8848-9.9512zm457.44 0c5.4591 2.5e-4 9.8846 4.4556 9.8848 9.9512-2e-4 5.4956-4.4257 9.9509-9.8848 9.9512-5.4591-2e-4 -9.8846-4.4555-9.8848-9.9512 2e-4 -5.4957 4.4257-9.951 9.8848-9.9512zm39.24 0c5.4591 2e-4 9.8846 4.4555 9.8848 9.9512-2e-4 5.4957-4.4257 9.951-9.8848 9.9512-5.4591-2e-4 -9.8846-4.4555-9.8848-9.9512 2e-4 -5.4957 4.4257-9.951 9.8848-9.9512zm39.236 0c5.4591 2.5e-4 9.8826 4.4556 9.8828 9.9512-2e-4 5.4956-4.4237 9.9509-9.8828 9.9512-5.4591-2e-4 -9.8846-4.4555-9.8848-9.9512 2e-4 -5.4957 4.4257-9.951 9.8848-9.9512zm993.35 0c5.4591 2e-4 9.8846 4.4555 9.8848 9.9512-2e-4 5.4957-4.4257 9.951-9.8848 9.9512-5.4591-2.5e-4 -9.8846-4.4555-9.8848-9.9512 2e-4 -5.4956 4.4257-9.9509 9.8848-9.9512zm39.236 0c5.4591 2e-4 9.8846 4.4555 9.8848 9.9512-2e-4 5.4957-4.4257 9.951-9.8848 9.9512-5.4591-2e-4 -9.8846-4.4555-9.8847-9.9512 1e-4 -5.4957 4.4256-9.951 9.8847-9.9512zm39.236 0c5.4591 2.5e-4 9.8846 4.4556 9.8848 9.9512-2e-4 5.4956-4.4257 9.9509-9.8848 9.9512-5.4591-2e-4 -9.8845-4.4555-9.8847-9.9512 2e-4 -5.4957 4.4256-9.951 9.8847-9.9512zm-1482.2 0.021484h53.303c1.0267 1e-3 1.86 0.83948 1.8613 1.873v15.945c0 1.0336-0.83463 1.8718-1.8613 1.873h-53.303c-1.0267-1e-3 -1.8581-0.83949-1.8594-1.873v-15.945c0-1.0336 0.83268-1.8718 1.8594-1.873zm76.488 0h53.295c1.0267 1e-3 1.8581 0.83952 1.8594 1.873v15.945c0 1.0335-0.83268 1.8717-1.8594 1.873h-53.295c-1.0267-1e-3 -1.86-0.83949-1.8613-1.873v-15.945c0-1.0336 0.83463-1.8718 1.8613-1.873zm76.479 0h53.305c1.0267 1e-3 1.8581 0.83948 1.8594 1.873v15.945c0 1.0336-0.83268 1.8718-1.8594 1.873h-53.305c-1.0267-1e-3 -1.8581-0.8395-1.8594-1.873v-15.945c0-1.0336 0.83268-1.8718 1.8594-1.873zm918.9 0h53.303c1.0267 1e-3 1.8581 0.83949 1.8594 1.873v15.945c-1e-3 1.0336-0.83268 1.8717-1.8594 1.873h-53.303c-1.0267-1e-3 -1.86-0.83948-1.8613-1.873v-15.945c1e-3 -1.0336 0.83462-1.8717 1.8613-1.873zm76.479 0h53.305c1.0267 1e-3 1.858 0.83948 1.8593 1.873v15.945c-1e-3 1.0336-0.8326 1.8718-1.8593 1.873h-53.305c-1.0267-1e-3 -1.8581-0.83949-1.8594-1.873v-15.945c1e-3 -1.0336 0.83267-1.8717 1.8594-1.873zm76.488 0h53.303c1.0267 1e-3 1.86 0.83948 1.8613 1.873v15.945c-1e-3 1.0336-0.8346 1.8718-1.8613 1.873h-53.303c-1.0267-1e-3 -1.8581-0.83948-1.8594-1.873v-15.945c1e-3 -1.0336 0.8327-1.8718 1.8594-1.873zm-1476.7 25.867h31.9v885.48h-31.9v-885.48zm63.732 0h743.78v32.055h-708.52-1.7012c-0.9281 0-1.6822 0.75502-1.6856 1.6894v817.9c0 0.93431 0.75725 1.6894 1.6856 1.6894h710.22v32.145h-743.78v-885.48zm912.38 0h742.02v885.48h-742.02v-32.145h708.42c0.9258-3e-3 1.6746-0.75729 1.6777-1.6894v-817.9c0-0.93205-0.7517-1.6863-1.6777-1.6894h-708.42v-32.055zm773.84 0h31.9v885.48h-31.9v-885.48zm-1647.9 37.225h1577.7c0.764-2e-3 1.3832 0.62017 1.3847 1.3887v808.19c0 0.77137-0.6188 1.3962-1.3847 1.3945h-1577.7c-0.764-1e-3 -1.3827-0.62569-1.3809-1.3945v-808.19c0-0.7668 0.61956-1.3873 1.3809-1.3887zm-54.287 84.418c5.4591 1.9e-4 9.8846 4.4536 9.8848 9.9492-2e-4 5.4956-4.4257 9.951-9.8848 9.9512-5.4591-1.9e-4 -9.8846-4.4555-9.8848-9.9512 2e-4 -5.4957 4.4257-9.949 9.8848-9.9492zm1686.2 0c5.4591 1.9e-4 9.8846 4.4536 9.8848 9.9492-2e-4 5.4956-4.4257 9.951-9.8848 9.9512-5.4591-1.9e-4 -9.8845-4.4555-9.8847-9.9512 2e-4 -5.4957 4.4256-9.949 9.8847-9.9492zm-1686.2 39.496c5.4613 1.9e-4 9.8877 4.4592 9.8848 9.957-2e-4 5.4956-4.4257 9.949-9.8848 9.9492-5.4591-1.9e-4 -9.8846-4.4536-9.8848-9.9492 0-5.4979 4.4235-9.9568 9.8848-9.957zm1686.2 0c5.4613 1.9e-4 9.8877 4.4592 9.8848 9.957-2e-4 5.4956-4.4257 9.949-9.8848 9.9492-5.4591-1.9e-4 -9.8845-4.4536-9.8847-9.9492 0-5.4979 4.4234-9.9568 9.8847-9.957zm-1686.2 39.504c5.4591 1.9e-4 9.8846 4.4555 9.8848 9.9512-2e-4 5.4957-4.4257 9.951-9.8848 9.9512-5.4591-1.9e-4 -9.8846-4.4555-9.8848-9.9512 2e-4 -5.4956 4.4257-9.951 9.8848-9.9512zm1686.2 0c5.4591 1.9e-4 9.8846 4.4555 9.8848 9.9512-2e-4 5.4957-4.4257 9.951-9.8848 9.9512-5.4591-1.9e-4 -9.8845-4.4555-9.8847-9.9512 2e-4 -5.4956 4.4256-9.951 9.8847-9.9512zm-1694.2 136.4h15.84c1.0267 1e-3 1.8581 0.83752 1.8594 1.8711v53.652c0 1.0336-0.83268 1.8718-1.8594 1.873h-15.84c-1.0267-1e-3 -1.8581-0.83949-1.8594-1.873v-53.652c0-1.0336 0.83267-1.8698 1.8594-1.8711zm1686.2 0h15.838c1.0267 1e-3 1.8601 0.83752 1.8614 1.8711v53.652c-1e-3 1.0336-0.8347 1.8718-1.8614 1.873h-15.838c-1.0267-1e-3 -1.86-0.83949-1.8613-1.873v-53.652c1e-3 -1.0336 0.8346-1.8698 1.8613-1.8711zm-1686.2 76.994h15.84c1.0267 1e-3 1.8581 0.83752 1.8594 1.8711v53.66c0 1.0336-0.83268 1.8698-1.8594 1.8711h-15.84c-1.0267-1e-3 -1.8581-0.83753-1.8594-1.8711v-53.66c0-1.0336 0.83267-1.8698 1.8594-1.8711zm1686.2 0h15.838c1.0267 1e-3 1.8601 0.83752 1.8614 1.8711v53.66c-1e-3 1.0336-0.8347 1.8698-1.8614 1.8711h-15.838c-1.0267-1e-3 -1.86-0.83753-1.8613-1.8711v-53.66c1e-3 -1.0336 0.8346-1.8698 1.8613-1.8711zm-1686.2 76.998h15.84c1.0267 1e-3 1.8581 0.83752 1.8594 1.8711v53.66c0 1.0336-0.83268 1.8698-1.8594 1.8711h-15.84c-1.0267-1e-3 -1.8581-0.83754-1.8594-1.8711v-53.66c0-1.0336 0.83267-1.8698 1.8594-1.8711zm1686.2 0h15.838c1.0267 1e-3 1.8601 0.83752 1.8614 1.8711v53.66c-1e-3 1.0336-0.8347 1.8698-1.8614 1.8711h-15.838c-1.0267-1e-3 -1.86-0.83754-1.8613-1.8711v-53.66c1e-3 -1.0336 0.8346-1.8698 1.8613-1.8711zm-1678.3 173.9c5.4591 1.9e-4 9.8846 4.4555 9.8848 9.9512-2e-4 5.4957-4.4257 9.951-9.8848 9.9512-5.4591-1.9e-4 -9.8846-4.4555-9.8848-9.9512 2e-4 -5.4956 4.4257-9.951 9.8848-9.9512zm1686.2 0c5.4591 1.9e-4 9.8845 4.4555 9.8847 9.9512-2e-4 5.4957-4.4256 9.951-9.8847 9.9512-5.4591-1.9e-4 -9.8846-4.4555-9.8848-9.9512 2e-4 -5.4956 4.4257-9.951 9.8848-9.9512zm-1686.2 39.496c5.4591 1.9e-4 9.8846 4.4555 9.8848 9.9512-2e-4 5.4956-4.4257 9.951-9.8848 9.9512-5.4591-1.9e-4 -9.8846-4.4555-9.8848-9.9512 2e-4 -5.4957 4.4257-9.951 9.8848-9.9512zm1686.2 0c5.4591 1.9e-4 9.8845 4.4555 9.8847 9.9512-2e-4 5.4956-4.4256 9.951-9.8847 9.9512-5.4591-1.9e-4 -9.8846-4.4555-9.8848-9.9512 2e-4 -5.4957 4.4257-9.951 9.8848-9.9512zm-1686.2 39.498c5.4591 1.9e-4 9.8846 4.4555 9.8848 9.9512-2e-4 5.4956-4.4257 9.949-9.8848 9.9492-5.4591-1.9e-4 -9.8846-4.4536-9.8848-9.9492 2e-4 -5.4957 4.4257-9.951 9.8848-9.9512zm1686.2 0c5.4591 1.9e-4 9.8845 4.4555 9.8847 9.9512-2e-4 5.4956-4.4256 9.949-9.8847 9.9492-5.4591-1.9e-4 -9.8846-4.4536-9.8848-9.9492 2e-4 -5.4957 4.4257-9.951 9.8848-9.9512zm-614.49 147.54c5.4591 2.5e-4 9.8846 4.4556 9.8848 9.9512-2e-4 5.4956-4.4257 9.9509-9.8848 9.9512-5.4591-1.9e-4 -9.8846-4.4555-9.8848-9.9512 2e-4 -5.4956 4.4257-9.951 9.8848-9.9512zm39.236 0c5.4591 1.9e-4 9.8846 4.4555 9.8848 9.9512-2e-4 5.4957-4.4257 9.951-9.8848 9.9512-5.4591-1.9e-4 -9.8846-4.4555-9.8848-9.9512 2e-4 -5.4956 4.4257-9.951 9.8848-9.9512zm39.236 0c5.4591 2.5e-4 9.8846 4.4556 9.8848 9.9512-2e-4 5.4956-4.4257 9.9509-9.8848 9.9512-5.4591-1.9e-4 -9.8846-4.4555-9.8848-9.9512 2e-4 -5.4956 4.4257-9.951 9.8848-9.9512zm-1150.2 0.16016c5.4591 2.5e-4 9.8846 4.4556 9.8848 9.9512-2e-4 5.4956-4.4257 9.9509-9.8848 9.9512-5.4591-1.9e-4 -9.8846-4.4555-9.8848-9.9512 2e-4 -5.4957 4.4257-9.951 9.8848-9.9512zm39.236 0c5.4591 1.9e-4 9.8846 4.4555 9.8848 9.9512-2e-4 5.4956-4.4257 9.951-9.8848 9.9512-5.4591-2.5e-4 -9.8846-4.4556-9.8848-9.9512 2e-4 -5.4956 4.4257-9.9509 9.8848-9.9512zm39.236 0c5.4591 1.9e-4 9.8846 4.4555 9.8848 9.9512-2e-4 5.4956-4.4257 9.951-9.8848 9.9512-5.4591-1.9e-4 -9.8846-4.4555-9.8848-9.9512 2e-4 -5.4957 4.4257-9.951 9.8848-9.9512zm457.44 0c5.4591 1.9e-4 9.8846 4.4555 9.8848 9.9512-2e-4 5.4956-4.4257 9.951-9.8848 9.9512-5.4591-2.5e-4 -9.8846-4.4556-9.8848-9.9512 2e-4 -5.4956 4.4257-9.9509 9.8848-9.9512zm39.236 0c5.4613-3e-3 9.8904 4.4533 9.8906 9.9512-2e-4 5.4978-4.4293 9.9541-9.8906 9.9512-5.4591-1.9e-4 -9.8846-4.4555-9.8848-9.9512 2e-4 -5.4957 4.4257-9.951 9.8848-9.9512zm39.24 0c5.4591 1.9e-4 9.8846 4.4555 9.8848 9.9512-2e-4 5.4956-4.4257 9.951-9.8848 9.9512-5.4613 3e-3 -9.8904-4.4533-9.8906-9.9512 2e-4 -5.4979 4.4293-9.9541 9.8906-9.9512zm993.35 0c5.4591 1.9e-4 9.8846 4.4555 9.8848 9.9512-2e-4 5.4956-4.4257 9.951-9.8848 9.9512-5.4591-1.9e-4 -9.8846-4.4555-9.8848-9.9512 2e-4 -5.4957 4.4257-9.951 9.8848-9.9512zm39.236 0c5.4591 2.5e-4 9.8846 4.4556 9.8848 9.9512-2e-4 5.4956-4.4257 9.9509-9.8848 9.9512-5.4591-1.9e-4 -9.8845-4.4555-9.8847-9.9512 2e-4 -5.4957 4.4256-9.951 9.8847-9.9512zm39.236 0c5.4591 1.9e-4 9.8845 4.4555 9.8847 9.9512-2e-4 5.4956-4.4256 9.951-9.8847 9.9512-5.4591-2.5e-4 -9.8846-4.4556-9.8848-9.9512 2e-4 -5.4956 4.4257-9.9509 9.8848-9.9512zm-1482.2 0.0332h53.297c1.0267 1e-3 1.8581 0.83948 1.8594 1.873v15.945c0 1.0336-0.83268 1.8718-1.8594 1.873h-53.297c-1.0267-1e-3 -1.8581-0.83948-1.8594-1.873v-15.945c0-1.0336 0.83267-1.8718 1.8594-1.873zm76.48 0h53.303c1.0267 1e-3 1.86 0.83948 1.8613 1.873v15.945c0 1.0336-0.83463 1.8718-1.8613 1.873h-53.303c-1.0267-1e-3 -1.8581-0.83952-1.8594-1.873v-15.945c0-1.0335 0.83268-1.8717 1.8594-1.873zm76.488 0h53.303c1.0267 1e-3 1.8581 0.83952 1.8594 1.873v15.945c0 1.0335-0.83268 1.8717-1.8594 1.873h-53.303c-1.0267-1e-3 -1.86-0.83948-1.8613-1.873v-15.945c0-1.0336 0.83463-1.8718 1.8613-1.873zm918.89 0h53.295c1.0267 1e-3 1.86 0.83949 1.8613 1.873v15.945c-1e-3 1.0336-0.83462 1.8718-1.8613 1.873h-53.295c-1.0267-1e-3 -1.86-0.83949-1.8613-1.873v-15.945c1e-3 -1.0336 0.83462-1.8718 1.8613-1.873zm76.48 0h53.303c1.0267 1e-3 1.8581 0.83948 1.8594 1.873v15.945c-1e-3 1.0336-0.8327 1.8718-1.8594 1.873h-53.303c-1.0267-1e-3 -1.86-0.83949-1.8613-1.873v-15.945c1e-3 -1.0336 0.83462-1.8718 1.8613-1.873zm76.486 0h53.305c1.0267 1e-3 1.858 0.83948 1.8593 1.873v15.945c-1e-3 1.0336-0.8326 1.8718-1.8593 1.873h-53.305c-1.0267-1e-3 -1.8581-0.83952-1.8594-1.873v-15.945c0-1.0335 0.8327-1.8717 1.8594-1.873zm-1476.7 25.867h31.9v32.102h-30.52c-0.7618 0-1.3774-0.6223-1.3789-1.3887l-0.00195-30.713zm63.732 0h743.86v32.102h-743.86v-32.102zm912.47 0h741.94v32.102h-741.94v-32.102zm773.76 0h31.9v30.713c0 0.7691-0.623 1.3905-1.3867 1.3887h-30.514v-32.102z" fill="#000000" style="paint-order:stroke fill markers" aria-label="INNER-FRAME">
      <title id="inner-frame">inner-frame</title>
    </path>
    <path id="cr-element" d="m455.41 22.859c-10.628 0-18.631 3.2103-23.805 10.35-9e-4 0.0013-3e-3 0.0023-4e-3 0.0036l-8e-3 0.01134c-4.9233 6.7239-7.182 16.895-7.182 30.039v11.82c0 13.154 2.2642 23.366 7.182 30.162l8e-3 0.0151c5.1077 6.9654 13.254 10.228 23.805 10.228 8.1896 0 14.854-1.5324 19.444-4.9044 4.6058-3.2302 7.4995-7.8797 9.7797-12.849 0.80679-1.758-0.0265-3.896-1.7685-4.7351l-2.2122-1.0649c-1.743-0.83907-3.6563-0.03024-4.4433 1.7371-1.5708 3.5254-3.667 6.7367-6.7386 9.2369-2.6892 1.9779-7.2115 3.1627-14.061 3.1627-3.7018 0-6.716-0.45098-9.1568-1.283-2.3273-0.87124-4.4962-2.3333-6.451-4.4278-1.828-1.9586-3.3191-4.8923-4.3688-9.085-1.0575-4.3053-1.6056-9.6614-1.6056-16.192v-11.819c0-6.5304 0.54797-11.843 1.602-16.059l4e-3 -0.0076c1.0517-4.2819 2.5491-7.2557 4.3688-9.2052 1.9542-2.0937 4.1118-3.5097 6.4185-4.3004l0.068-0.02646c2.4129-0.89622 5.4298-1.387 9.1209-1.387 6.8509 0 11.35 1.2174 14.04 3.2667l0.0189 0.01512 0.0189 0.01134c3.2314 2.2914 5.138 5.6138 6.6778 9.122 0.77731 1.7712 2.7471 2.5589 4.4905 1.7208l2.2106-1.0628c1.7434-0.83816 2.6412-3.0021 1.8418-4.763-2.2618-4.983-5.4634-9.3878-9.8523-12.823-4.5899-3.3721-11.254-4.9044-19.444-4.9044zm42.445 4.7086v83.212a3.5026 3.5026 0 0 0 3.5026 3.5026h2.4112a3.5026 3.5026 0 0 0 3.5026-3.5026v-73.793c0-1.9345 1.568-3.5233 3.5024-3.5445 12.813-0.14022 29.039 0.26533 30.256 15.836 0.22489 9.1084-7.5312 12.623-14.39 16.391-0.74802 0.41092-1.1118 1.4042-0.81949 2.2064l15.109 41.447a0.99634 0.99634 0 0 0 0.36587 0.47582l10.325 7.2066a1.1074 1.1074 0 0 0 1.6745-1.2868l-15.878-43.635a1.8255 1.8255 0 0 1 0.82546-2.2181l0.59094-0.32996c7.7092-4.3136 11.614-11.203 11.614-20.257 0-7.9844-3.045-14.273-9.2679-18.741l-4e-3 -0.0036c-6.0273-4.4055-14.782-6.4654-25.705-6.4654h-14.11a3.5026 3.5026 0 0 0-3.5026 3.5026z" fill="#d40000" style="paint-order:stroke fill markers" aria-label="CR-ELEMENT">
      <title id="cr-element">cr-element</title>
    </path>
    <path id="bq-element" d="m516.11 940.97c-8.6311 0-15.13 2.6101-19.331 8.4156-3.9962 5.4581-5.83 13.713-5.83 24.376v9.5858c0 10.003 1.602 17.895 5.0613 23.372l0.0227 0.03c3.3694 5.1572 8.4168 8.0577 15.034 9.0275 0.58879 6.5126 2.2878 11.49 5.5072 14.417 3.4384 3.1258 8.1246 4.5291 13.821 4.5291h2.3692v-7.673h-2.3692c-4.4437 0-7.3324-1.1667-9.096-3.1264-1.7227-1.9196-2.8169-6.0383-2.8169-13.09v-2.3692h-2.3692c-3.002 0-5.4445-0.3639-7.4216-1.0378-1.8842-0.7054-3.6423-1.891-5.2268-3.5887-1.4804-1.586-2.6883-3.9625-3.5393-7.3618-0.85736-3.4907-1.3009-7.8332-1.3009-13.13v-9.5858c0-5.2963 0.44346-9.6054 1.298-13.023l2e-3 -4e-3 1e-3 -4e-3c0.85264-3.4715 2.0658-5.8807 3.5393-7.4594 1.5834-1.6965 3.3324-2.8435 5.2007-3.484l0.0529-0.0227c1.9549-0.72614 4.4002-1.1236 7.3925-1.1236 2.9923 0 5.4377 0.39742 7.3925 1.1236l0.0529 0.0227c1.8682 0.64052 3.6173 1.7876 5.2007 3.484 1.473 1.5782 2.685 3.9875 3.5378 7.4594l1e-3 4e-3 2e-3 4e-3c0.85464 3.4186 1.2994 7.7274 1.2994 13.023v9.5858c0 11.525-2.3033 18.566-6.3051 21.966l-1.7806 1.5116 4.8708 5.9 1.83-1.5466c6.2435-5.277 9.0582-14.794 9.0582-27.83v-9.5858c0-10.664-1.835-18.92-5.8315-24.378l-8e-3 -8e-3c-4.2014-5.7994-10.697-8.4054-19.324-8.4054zm-79.647 0.9782v73.214h18.02c9.0257 0 16.152-1.7511 21.031-5.5945l0.0151-0.015c4.9422-3.9686 7.343-9.2426 7.343-15.836 0-7.7795-3.3298-13.675-9.6395-17.326 3.9281-3.4505 5.9215-8.1616 5.9215-13.977 0-6.4877-2.4761-11.597-7.538-15.225-4.8923-3.572-11.995-5.2412-20.852-5.2412zm7.673 7.673h6.6294c14.612 0 20.717 4.489 20.717 12.794 0 4.5926-1.8202 7.7217-5.522 9.7604l-0.0189 0.0113-9.9173 5.6671 10.648 3.9028c5.8701 2.1656 8.5264 5.9347 8.5264 11.962 0 2.708-0.58202 4.9418-1.6294 6.7224-1.0533 1.7906-2.5699 3.2039-4.4913 4.1659-2e-3 7e-4 -3e-3 0-4e-3 0-2.0872 1.0112-4.2985 1.7573-6.6366 2.2384-2.3756 0.4236-5.0197 0.6409-7.9549 0.6409h-10.347z" fill="#d40000" style="paint-order:stroke fill markers" aria-label="BQ-ELEMENT">
      <title id="bq-element">bq-element</title>
    </path>
  </g>
</svg>
