<svg width="80" height="80" viewBox="0 0 128 128" fill="none" xmlns="http://www.w3.org/2000/svg">
  <!-- Detailed fish illustration for Aquatic gallery -->
  <path fill="#00B6FF" d="M53.45,17.12a5.455,5.455,0,1,0,5.46,5.46A5.465,5.465,0,0,0,53.45,17.12Zm0,8.91a3.455,3.455,0,1,1,3.46-3.45A3.457,3.457,0,0,1,53.45,26.03Z"/>
  <path fill="#00B6FF" d="M122.42,60.83a1,1,0,0,0-.86-.49h-16.4c-13.19,0-25.29-4.88-34-13.73C60.91,36.24,43.61,30.09,25.11,30.09H6.56a1,1,0,0,0-.86,1.51L18.23,53.74,5.7,75.87a1,1,0,0,0,.86,1.51h18.55c18.5,0,35.8-6.15,46.05-16.42,8.75-8.85,20.85-13.73,34-13.73h16.4A1,1,0,0,0,122.42,60.83ZM25.11,75.38H8.15L19.8,54.59a1,1,0,0,0,0-1.7L8.15,32.09H25.11c18,0,34.87,6,45,16.08C60,58.39,43.09,75.38,25.11,75.38Zm80-28.15H89.16c-13.51,0-25.94,5-35,14.05C64.32,51.07,78,42.34,89.16,42.34h16Z"/>
  <path fill="#00B6FF" d="M67.44,59.44c.18,1.07.36,2.09.55,3.05a1,1,0,0,0,1,.83h.17a1,1,0,0,0,.82-1.14c-.2-1-.38-2-.57-3.13a1,1,0,1,0-2,.39Z"/>
  <path fill="#00B6FF" d="M65.36,49.83a46.93,46.93,0,0,0,1.77,5.27,1,1,0,0,0,.93.63,1,1,0,0,0,.37-.07,1,1,0,0,0,.56-1.3,45.15,45.15,0,0,1-1.69-5,1,1,0,1,0-1.94.5Z"/>
  <path fill="#00B6FF" d="M37.33,57.94A1,1,0,0,0,38,58.5a1,1,0,0,0,.56-1.3,33.55,33.55,0,0,1-1.95-7.14,1,1,0,1,0-2,.28A35.54,35.54,0,0,0,36.7,57.3,1,1,0,0,0,37.33,57.94Z"/>
  <path fill="#00B6FF" d="M39.91,64.36a1,1,0,1,0,1.94.47c.21-.89.4-1.78.58-2.68a1,1,0,1,0-2-.36C40.3,62.64,40.11,63.5,39.91,64.36Z"/>
  <path fill="#00B6FF" d="M53,67.63c.54.78,1.09,1.52,1.66,2.24a1,1,0,0,0,.79.39,1,1,0,0,0,.61-.21,1,1,0,0,0,.18-1.4c-.54-.68-1.06-1.39-1.57-2.12a1,1,0,0,0-1.67,1.1Z"/>
  <path fill="#00B6FF" d="M46.09,67.82a26.84,26.84,0,0,0,3.29,2.09,1,1,0,0,0,1.37-.37,1,1,0,0,0-.37-1.37,25,25,0,0,1-3.06-1.94,1,1,0,1,0-1.23,1.59Z"/>
  <path fill="#00B6FF" d="M63.76,39.66a31.77,31.77,0,0,0-3.18-2,1,1,0,1,0-1,1.73,30,30,0,0,1,3,1.86,1,1,0,0,0,1.39-.2A1,1,0,0,0,63.76,39.66Z"/>
  <path fill="#00B6FF" d="M43.15,40.26a25.25,25.25,0,0,1,3.28-1.87,1,1,0,1,0-.89-1.79,27.18,27.18,0,0,0-3.55,2,1,1,0,0,0-.24,1.39A1,1,0,0,0,43.15,40.26Z"/>
</svg>
